<?xml version="1.0" standalone="no"?>
<!DOCTYPE svg PUBLIC "-//W3C//DTD SVG 20010904//EN"
 "http://www.w3.org/TR/2001/REC-SVG-20010904/DTD/svg10.dtd">
<svg version="1.0" xmlns="http://www.w3.org/2000/svg"
 width="33.000000pt" height="31.000000pt" viewBox="0 0 33.000000 31.000000"
 preserveAspectRatio="xMidYMid meet">

<g transform="translate(0.000000,31.000000) scale(0.100000,-0.100000)"
fill="#000000" stroke="none">
<path d="M0 155 l0 -155 165 0 165 0 0 155 0 155 -165 0 -165 0 0 -155z m214
74 c-15 -29 -15 -31 0 -26 23 9 19 -11 -13 -63 -26 -42 -61 -65 -61 -40 0 6 5
8 12 4 7 -4 8 -3 4 4 -4 6 1 23 10 37 9 14 12 25 6 25 -6 0 -14 -4 -17 -10 -3
-5 -14 -10 -22 -10 -13 0 -9 8 13 31 l29 32 -37 -7 c-41 -7 -52 6 -19 24 17 8
77 26 104 29 4 1 0 -13 -9 -30z"/>
</g>
</svg>
